<?xml version="1.0" encoding="UTF-8" standalone="no"?>
<svg
   viewBox="0 0 281.58098 265.60406"
   version="1.1"
   id="svg1"
   sodipodi:docname="favicon.svg"
   width="281.58096"
   height="265.60406"
   inkscape:version="1.3.2 (091e20e, 2023-11-25, custom)"
   xmlns:inkscape="http://www.inkscape.org/namespaces/inkscape"
   xmlns:sodipodi="http://sodipodi.sourceforge.net/DTD/sodipodi-0.dtd"
   xmlns="http://www.w3.org/2000/svg"
   xmlns:svg="http://www.w3.org/2000/svg">
  <defs
     id="defs1" />
  <sodipodi:namedview
     id="namedview1"
     pagecolor="#ffffff"
     bordercolor="#000000"
     borderopacity="0.25"
     inkscape:showpageshadow="2"
     inkscape:pageopacity="0.0"
     inkscape:pagecheckerboard="0"
     inkscape:deskcolor="#d1d1d1"
     inkscape:zoom="3.2506678"
     inkscape:cx="110.90029"
     inkscape:cy="106.90111"
     inkscape:window-width="2497"
     inkscape:window-height="1417"
     inkscape:window-x="1495"
     inkscape:window-y="483"
     inkscape:window-maximized="1"
     inkscape:current-layer="svg1" />
  <ellipse
     style="fill:#800080;stroke-width:1.17448"
     id="path2"
     cx="133.54701"
     cy="73.008644"
     rx="10.147975"
     ry="10.471064" />
  <path
     d="m 95.219521,0.00228388 c -0.42181,0.01001 -0.8533,0.03299 -1.25,0.125 -4.2458,0.6737 -6.3995,5.02340002 -9.5,9.12500002 -3.5058,47.9110001 -8.4577,91.7799961 -11.969,139.7499961 14.693,-1.101 34.886999,-0.875 55.624999,-1.157 22.562,-0.306 44.548,-1.85 55.313,-5.75 22.183,-8.037 39.299,-28.388 53.593,-58.624996 -43.94,-26.752 -91.239,-58.549 -131.81,-80.2500001 -3.526,-1.4701 -7.047999,-3.28140002 -9.999999,-3.21870002 z m -19.125,19.59400012 c -26.278,49.685 -49.521,90.343996 -76.03100039,140.909996 -0.51467,13.585 2.16569999,21.404 5.59379999,26.375 3.436,4.982 6.5499004,6.271 11.1560004,5.968 6.6436,-2.202 14.993,-8.119 23.625,-15.593 3.2732,-2.917 24.236,-21.104 26.031,-25.125 3.2894,-44.956 6.3117,-87.313996 9.625,-132.529996 z m 75.030999,2.375 c 31.985,19.845 62.563,39.804 90.406,56.281 8.322,4.9249 24.101,10.766 36.032,14.312 -11.355,-11.499 -24.315,-21.382 -38.75,-28.5 l -87.688,-42.094 z m -20.375,18.531 c 3.229,-0.084 6.431,0.8236 9.594,2.6875 6.335,3.6829 12.218,11.083 17.656,22.219 5.078,10.399 6.991,20.023 5.75,28.875 -1.23,8.807096 -5.452,15.433996 -12.656,19.874996 -1.935,1.193 -3.986,2.186 -6.188,2.969 l -7.156,1.812 -3.969,-8.125 c 2.453,-0.132 4.804,-0.523 7.063,-1.187 2.259,-0.665 4.341,-1.605 6.25,-2.782 5.091,-3.138 8.004,-7.498096 8.75,-13.092996 0.756,-5.6403 -0.62801,-12.599 -4.188,-20.906 -0.239,3.4439 -1.177,6.5295 -2.781,9.2813 -1.604,2.7518 -3.782,4.9614 -6.531,6.6563 -5.702,3.5153 -11.192,4.3273 -16.469,2.4062 -5.266,-1.9662 -9.588,-6.4208 -12.969,-13.344 -3.308,-6.7753 -4.243,-13.271 -2.781,-19.5 1.463,-6.229 5.091,-11.109 10.844,-14.656 3.296,-2.0322 6.552,-3.1033 9.781,-3.1875 z m -0.719,8.4063 c -1.864,0.0693 -3.731,0.6765 -5.625,1.8437 -3.462,2.1344 -5.534,5.2255 -6.218,9.25 -0.674,3.9795 0.152,8.3197 2.468,13.062 2.331,4.7723 5.183,7.9065 8.532,9.4062 l 10.25,-0.9687 c 3.462,-2.1343 5.514,-5.1767 6.187,-9.1563 0.69899,-3.9948 -0.10701,-8.3838 -2.437,-13.156 -2.317,-4.7427 -5.157,-7.8594 -8.532,-9.3438 -1.261,-0.5733 -2.537,-0.8793 -3.812,-0.9374 -0.26601,-0.0122 -0.546,-0.01 -0.813,0 z m -68.280999,25.031 c 0.6652,-0.037 1.208,0.1563 1.625,0.5625 1.3431,1.2694 1.2536,4.5971 -0.3125,10 -1.0911,3.764 -2.6406,7.4522 -4.5937,11.062 -1.9444,3.5802 -4.1583,6.809896 -6.6563,9.655896 2.1708,-1.101 3.5284,-0.74 4.0313,1.094 0.5195,1.82 0.1419,4.91 -1.125,9.281 -1.9445,6.709 -4.7489,12.968 -8.375,18.782 -3.6262,5.813 -7.7814,10.681 -12.5,14.625 -1.5841,1.324 -3.1383,2.418 -4.6563,3.25 -1.51,0.84801 -3.008,1.442 -4.4687,1.812 l 2.5937,-8.875 c 0.9845,0.304 2.191,0.15001 3.6563,-0.5 1.4652,-0.64999 3.1318,-1.746 4.9687,-3.281 3.2019,-2.676 5.953,-5.86 8.2813,-9.531 2.345,-3.685 4.148,-7.691 5.4062,-12.032 1.1614,-4.006 1.2911,-6.47 0.375,-7.406 -0.8905,-0.981 -2.7194,-0.324 -5.5,2 l -4.4062,3.688 2.1875,-7.563 4.5937,-3.844 c 2.5109,-2.098 4.712,-4.596 6.5625,-7.499696 1.8592,-2.9338 3.2645,-6.1003 4.25,-9.5 1.0118,-3.4906 1.0952,-5.5845 0.25,-6.2812 -0.8195,-0.74091 -2.501,-0.0471 -5.0625,2.0938 -1.3988,1.1691 -2.9907,2.6782 -4.75,4.5624 -1.7593,1.8848 -3.7445,4.2097 -6,6.9688 l 2.375,-8.1875 c 2.2195,-2.5911 4.2365,-4.8246 6.0625,-6.7187 1.8428,-1.9084 3.5001,-3.4964 5,-4.75 2.6647,-2.2272 4.7241,-3.3871 6.1875,-3.4688 z m 182.279999,13.062 c -14.131,29.866996 -32.132,52.602996 -55.187,62.061996 l 3.5,113.78 c 6.026,-3.364 7.165,-5.379 9.812,-11.75 l 78.625,-144.28 c 1.097,-2.81 1.198,-4.629 -0.53101,-5.8124 -12.965,-3.627796 -24.104,-8.058596 -36.219,-13.999996 z m -59.343,19.905996 2.75,5.594 -45.594,22.406 -2.781,-5.594 z m 66.875,21 -3.125,8.187 c -3.473,4.641 -8.176,10.887 -14.094,18.719 -5.948,7.872 -9.739,12.899 -11.344,15.125 -3.036,4.191 -5.349,7.633 -6.937,10.313 -1.619,2.718 -2.879,5.248 -3.782,7.593 -1.472,3.823 -1.939,6.657 -1.406,8.469 0.51599,1.819 1.95,2.234 4.281,1.281 1.653,-0.675 3.592,-1.905 5.844,-3.718 2.235,-1.807 4.834,-4.214 7.75,-7.219 l -3.812,9.812 c -2.729,2.442 -5.16,4.444 -7.313,6 -2.153,1.557 -4,2.656 -5.531,3.282 -4.036,1.649 -6.534,1.088 -7.5,-1.657 -0.966,-2.745 -0.244,-7.237 2.156,-13.468 1.138,-2.956 2.521,-5.867 4.156,-8.782 1.606,-2.876 3.907,-6.442 6.875,-10.687 0.79401,-1.11 3.2,-4.364 7.25,-9.781 l 17.063,-22.688 -18.406,7.5 3.156,-8.187 z m -68.938,23.406 c -12.719,3.815 -33.163,4.618 -54.437,4.906 -18.055,0.171 -42.773999,-1.25 -57.343999,1.375 -8.5083,8.198 -17.668,16.963 -26.625,24.719 -7.9754,6.68 -16.143,13.618 -26.219,16.813 -1.2392,0.10001 -1.4405,-0.04 -2.6875,-0.188 3.7351,3.362 7.6625,5.399 11.906,7.813 l 143.439999,57.437 c 0.754,0.147 8.699,3.09 15.188,0.031 l -3.219,-112.91 z m -68.906,31.719 c 0.641,-0.022 1.276,-0.019 1.906,0 0.72,0.022 1.418,0.082 2.125,0.15599 5.656,0.595 10.154,2.745 13.5,6.469 2.393,2.663 3.376,5.371 2.906,8.125 -0.44,2.741 -2.266,5.241 -5.437,7.5 4.902,-1.096 9.469,-1.091 13.687,-0.031 4.247,1.046 7.702,3.056 10.375,6.031 4.057,4.514 5.218,8.787 3.5,12.844 -1.689,4.043 -6.125,7.605 -13.343,10.656 -7.219,3.051 -13.851,4.177 -19.907,3.406 -6.026,-0.78299 -11.068,-3.423 -15.125,-7.937 -2.673,-2.976 -3.733,-5.99 -3.187,-9.063 0.545,-3.072 2.619,-5.864 6.25,-8.375 v -0.031 c -4.398,0.94 -8.484,0.95 -12.280999,0 -3.7684,-0.96201 -6.8576,-2.775 -9.2505,-5.438 -3.3463,-3.724 -4.1421,-7.455 -2.375,-11.187 1.7964,-3.745 5.9499,-6.977 12.438,-9.719 4.989999,-2.109 9.732999,-3.256 14.218999,-3.406 z m -1.563,6.5 c -2.596,0.048 -5.338,0.702 -8.187,1.906 -3.829,1.618 -6.175999,3.527 -7.093999,5.781 -0.8889,2.242 -0.2623,4.587 1.906,7 2.168999,2.414 4.899999,3.85 8.218999,4.313 3.348,0.45099 6.953,-0.132 10.781,-1.75 3.799,-1.606 6.145,-3.527 7.063,-5.781 0.94701,-2.267 0.356,-4.618 -1.813,-7.032 -2.168,-2.413 -4.966,-3.843 -8.343,-4.281 -0.838,-0.11299 -1.666,-0.172 -2.532,-0.15599 z m 19.282,20.187 c -2.953,0 -6.01,0.688 -9.188,2.032 -4.208,1.778 -6.826,3.966 -7.812,6.593 -0.957,2.615 -0.181,5.317 2.343,8.125 2.524,2.809 5.727,4.536 9.563,5.125 3.865,0.577 7.885,-0.034 12.094,-1.812 4.208,-1.779 6.826,-3.998 7.812,-6.625 0.967,-2.648 0.19299,-5.369 -2.312,-8.156 -2.524,-2.809 -5.729,-4.486 -9.594,-5.063 -0.959,-0.14699 -1.922,-0.22 -2.906,-0.21899 z"
     id="path1"
     style="fill:#800080" />
</svg>
